<?xml version="1.0" encoding="utf-8" ?>
<svg xmlns="http://www.w3.org/2000/svg" xmlns:xlink="http://www.w3.org/1999/xlink" width="1024" height="1024">
	<path d="M0 0L1024 0L1024 1024L0 1024L0 0Z"/>
	<path fill="#BA9C1E" d="M318.922 434.544C338.543 405.969 357.71 377 376.908 348.135Q384.206 337.265 391.382 326.313C395.2 320.423 398.801 314.031 403.442 308.762C405.731 306.163 408.392 304.757 411.797 304.149C415.593 303.471 421.663 303.665 424.844 306.129C432.004 311.675 440.229 327.08 445.436 335.126L488.155 401.386C495.302 412.518 503.285 426.862 511.762 436.765C497.728 458.334 482.186 478.969 467.784 500.298C457.03 516.225 445.949 531.833 434.896 547.544C428.303 556.914 422.371 567.019 414.495 575.394C406.38 564.941 399.281 553.454 391.875 542.489C373.575 515.396 355.942 487.821 337.188 461.039C331.114 452.365 325.91 442.477 318.922 434.544Z"/>
	<path fill="#CF8E3E" d="M414.512 575.74C413.038 578.399 410.741 580.977 408.923 583.446C404.699 589.187 400.364 594.891 396.368 600.793L340.61 682.841C328.484 700.556 312.867 711.948 291.462 715.847Q290.545 716.022 289.623 716.175Q288.702 716.327 287.777 716.456Q286.852 716.585 285.924 716.691Q284.996 716.797 284.066 716.88Q283.135 716.963 282.203 717.023Q281.271 717.082 280.338 717.118Q279.405 717.155 278.471 717.168Q277.537 717.181 276.603 717.17Q275.669 717.16 274.736 717.126Q273.802 717.092 272.87 717.035Q271.938 716.978 271.008 716.898Q270.077 716.817 269.149 716.714Q268.221 716.61 267.295 716.484Q266.37 716.357 265.448 716.207Q264.526 716.057 263.608 715.885Q262.691 715.712 261.777 715.516Q260.864 715.32 259.956 715.102Q259.048 714.884 258.146 714.643Q257.243 714.401 256.347 714.138Q255.451 713.874 254.562 713.589Q253.673 713.303 252.791 712.995Q251.91 712.687 251.036 712.357Q250.162 712.027 249.297 711.676Q248.432 711.324 247.575 710.951Q246.719 710.578 245.873 710.183Q245.026 709.789 244.19 709.373Q243.353 708.958 242.527 708.522Q241.701 708.086 240.887 707.629Q240.072 707.172 239.269 706.695Q238.466 706.218 237.675 705.721Q236.884 705.225 236.106 704.708Q235.328 704.192 234.563 703.656C218.069 692.088 205.124 673.745 201.657 653.706Q201.393 652.25 201.181 650.787Q200.968 649.323 200.808 647.852Q200.647 646.382 200.539 644.906Q200.43 643.431 200.374 641.953Q200.318 640.475 200.313 638.995Q200.309 637.516 200.357 636.038Q200.405 634.559 200.505 633.083Q200.605 631.607 200.758 630.136Q200.91 628.665 201.114 627.2Q201.318 625.734 201.573 624.277Q201.829 622.82 202.136 621.373Q202.443 619.926 202.801 618.491Q203.158 617.055 203.566 615.634Q203.975 614.212 204.433 612.805Q204.891 611.399 205.398 610.009Q205.906 608.62 206.462 607.249C211.011 595.869 218.27 585.912 225.014 575.766L248.254 540.976L293.869 472.401C302.23 459.801 310.245 446.928 318.922 434.544C325.91 442.477 331.114 452.365 337.188 461.039C355.942 487.821 373.575 515.396 391.875 542.489C399.281 553.454 406.38 564.941 414.495 575.394L414.512 575.74Z"/>
	<path fill="#CF8E3E" d="M704.808 434.35C727.704 467.833 749.383 502.189 771.887 535.935L794.517 570.209C802.74 582.448 812.612 595.176 818.124 608.875Q818.651 610.192 819.131 611.527Q819.611 612.862 820.044 614.213Q820.477 615.564 820.861 616.93Q821.246 618.295 821.582 619.673Q821.918 621.052 822.205 622.441Q822.491 623.83 822.729 625.229Q822.967 626.628 823.155 628.034Q823.342 629.44 823.48 630.852Q823.618 632.264 823.706 633.68Q823.794 635.096 823.832 636.514Q823.87 637.932 823.857 639.351Q823.845 640.769 823.782 642.186Q823.72 643.604 823.607 645.018Q823.494 646.432 823.331 647.841Q823.168 649.25 822.956 650.653Q822.743 652.056 822.481 653.45Q822.295 654.443 822.084 655.432Q821.873 656.421 821.638 657.404Q821.402 658.387 821.143 659.363Q820.883 660.34 820.598 661.31Q820.314 662.28 820.006 663.243Q819.697 664.205 819.365 665.16Q819.033 666.115 818.676 667.061Q818.32 668.007 817.941 668.944Q817.561 669.88 817.158 670.807Q816.755 671.734 816.329 672.651Q815.903 673.568 815.455 674.474Q815.006 675.379 814.535 676.274Q814.064 677.168 813.57 678.05Q813.077 678.932 812.562 679.802Q812.046 680.671 811.509 681.528Q810.973 682.384 810.415 683.227Q809.856 684.07 809.277 684.898Q808.698 685.727 808.099 686.541Q807.5 687.355 806.88 688.153Q806.26 688.952 805.621 689.735Q804.982 690.518 804.323 691.284Q803.664 692.051 802.987 692.801Q802.309 693.551 801.613 694.284Q800.916 695.017 800.202 695.732Q799.488 696.447 798.756 697.144Q798.024 697.841 797.275 698.52Q796.526 699.199 795.76 699.858Q794.994 700.518 794.212 701.158Q793.43 701.799 792.632 702.419Q791.834 703.04 791.021 703.64Q790.208 704.241 789.38 704.821Q788.552 705.401 787.71 705.96C770.386 717.7 749.813 722.085 729.255 718.07C709.439 714.201 692.981 701.709 681.979 685.091L627.14 601.281C623.882 596.314 613.514 578.504 609.868 575.469C620.574 560.784 630.406 545.381 640.486 530.263L672.629 482.65L694.089 450.803C697.704 445.415 701.736 440.058 704.808 434.35Z"/>
	<path fill="#DB910A" d="M511.762 436.765C520.366 424.8 528.22 412.213 536.318 399.897L569.909 349.287C574.695 342.042 594.216 309.949 599.675 306.355C603.569 303.792 608.869 303.191 613.368 304.102C617.277 304.895 620.298 307.161 622.83 310.166C626.332 314.324 629.128 319.487 632.103 324.042L649.821 351.222Q677.08 392.941 704.808 434.35C701.736 440.058 697.704 445.415 694.089 450.803L672.629 482.65L640.486 530.263C630.406 545.381 620.574 560.784 609.868 575.469L541.762 678.363C537.607 684.547 525.178 705.424 520.522 708.69C516.826 711.282 511.358 711.454 507.097 710.522C503.179 709.666 500.977 707.356 498.53 704.352C495.089 700.127 492.405 695.099 489.482 690.492Q482.77 680.076 475.912 669.755Q445.486 622.568 414.512 575.74L414.495 575.394C422.371 567.019 428.303 556.914 434.896 547.544C445.949 531.833 457.03 516.225 467.784 500.298C482.186 478.969 497.728 458.334 511.762 436.765Z"/>
</svg>
